<?xml version="1.0" encoding="utf-8"?>
<!-- Generator: Adobe Illustrator 21.0.0, SVG Export Plug-In . SVG Version: 6.00 Build 0)  -->
<svg version="1.1" id="Layer_1" xmlns="http://www.w3.org/2000/svg" xmlns:xlink="http://www.w3.org/1999/xlink" x="0px" y="0px"
	 viewBox="0 0 1400 980" enable-background="new 0 0 1400 980" xml:space="preserve">
<g>
	<g>
		<g>
			<rect id="XMLID_10_" x="0" y="0" fill="#EA7E73" width="1400" height="980"/>
		</g>
	</g>
	<path fill="#CC635E" d="M977,693.8c-462,0-836.6-214.4-836.6-478.8c0-77.3,32-150.3,88.8-214.9H0v980h1400V628.2
		C1275.9,669.9,1131.4,693.8,977,693.8z"/>
	<g>
		<g>
			<rect x="239.6" y="471.2" fill="#F1AAAF" width="265.7" height="411.3"/>
			<rect x="525.5" y="471.2" fill="#F1AAAF" width="265.7" height="411.3"/>
		</g>
		<g>
			<rect x="239.6" y="47.3" fill="#F1AAAF" width="265.7" height="411.3"/>
			<rect x="525.5" y="47.3" fill="#F1AAAF" width="265.7" height="411.3"/>
		</g>
	</g>
	<g>
		<g>
			<path fill="#B07E09" d="M1065.8,69.7l-43.2-30.3c0,0-108.9,53.9,0,127.4s95.6-45.7,95.6-45.7L1065.8,69.7z"/>
			<path fill="#855914" d="M1006.2,137.3c0,0,2.3,13.6,13.4,9.2v-4.2C1019.6,142.3,1011.1,147.5,1006.2,137.3z"/>
			<path fill="#801D7F" d="M1042.2,788.4L1014.4,904c0,0-272.9-91.1-305.1-51.2c-32.2,39.9,92,115,92,115h449.4
				c0,0,50.6-52.2-15.3-89.7S1042.2,788.4,1042.2,788.4z"/>
			<path fill="#E44F50" d="M1143.6,280.4l-125.8,133.1l-12.5,410.8l253.5,72.3c0,0-83.8-225.1-65.7-308.1
				C1211.1,505.5,1196,349.4,1143.6,280.4z"/>
			<path fill="#ECC19C" d="M1159.4,116l-22.3,36.7l15.3,167.1l-82.9,73.2c0,0,62.5-80.5,22.1-175.9
				c-17.2-40.7,61.6-114.4,61.6-114.4L1159.4,116z"/>
			<path fill="#F0D0B4" d="M1012.9,50.7c0,0-6.1,30.5-6.7,58.1c-0.5,25.7,26.8,18-12.5,73.8l6.8,2.2c0,0,15.8-3.9,22.3,1.9
				c6.5,5.8,0,8.6,0,8.6l23.7-4.5l-17.9,13.1l-1.3,8c0,0,12.9-3.5,13.6,3.3c0.7,6.8-11.2,24-7.4,33.4c0,0,24.7,2.2,64.4-23.1
				s33.9-105.1,33.9-105.1l-34.6-56.5L1012.9,50.7z"/>
			<path fill="#F5BA3D" d="M1014.4,112.1l2.1,4c0,0,19.3-8.9,39.1,0C1055.6,116,1036.3,100.2,1014.4,112.1z"/>
			<path fill="#855914" d="M1029.9,131.6l4.3,3.2c7.1,1,21.4-8.1,21.4-8.1L1029.9,131.6z"/>
			<path fill="#F5BA3D" d="M1006.2,63.3c0,0,2.6-17.2,13.4-11.6c43.3,22.4,57.5,252.5,139.2,141.8c7.8-10.6,25.3-46.1,25.3-46.1
				s36.9,7.6,38.4-14c1.5-21.6-25.2-67.3-51.9-56.5c0,0,15.9-43.9-38.6-55.2c-54.5-11.3-72.4,31-86.8,18.2
				C1030.9,27.1,965.2,6.9,1006.2,63.3z"/>
			<path fill="#F0D0B4" d="M1184.8,470.9l73.9,270L1014.4,904l-8.2-25.9l204.7-163.4l-71.7-196.9
				C1139.2,517.8,1137.3,467.8,1184.8,470.9z"/>
		</g>
		<g>
			<path fill="#5874A0" d="M895.4,633.8l-152,167.6l35.7,6.6l113-104.5C892,703.5,939.3,649.3,895.4,633.8z"/>
			<path fill="#96A5D4" d="M868.2,873.7c8,12.1,84.3,100,154.3,42.1c-0.1-1.8,8.2-27.6,7.8-29.5c-12.3-64.8-20.5-65.5-20.5-65.5
				s-5.1-221.6-77.9-189.5c0,0-56.8,15.7-54.2,117.3C879.4,810.5,868.7,870.4,868.2,873.7z"/>
			
				<ellipse transform="matrix(0.4041 -0.9147 0.9147 0.4041 -25.8215 1228.0166)" fill="#ECC19C" cx="929.7" cy="633.8" rx="35.7" ry="23.7"/>
			<g>
				<path fill="#855914" d="M853.1,556.7l15.1-77.7C868.2,479,785.9,492.3,853.1,556.7z"/>
				<path fill="#F0D0B4" d="M868.2,479c0,0-36.5,17.3-21.8,82.2c0,0,20.4,37.2,1.9,43.6l8.5,5.3l-5.4,8.3l6.5,5.7l-4.6,4
					c0,0,11.8,3.1,9.7,10.2s4.7,12.9,4.7,12.9s51.6,13.1,85.8-15.9c12.2-10.3-3.6-138.8-3.6-138.8L868.2,479z"/>
				<path fill="#B07E09" d="M866.8,565.1c0,0,18.2-6.4,43,7.7C909.8,572.8,892.4,565.4,866.8,565.1z"/>
				<path fill="#855914" d="M857.6,621.9l6.9,3.3C864.5,625.2,857.6,631.9,857.6,621.9z"/>
				<path fill="#B07E09" d="M855.3,518.9c0,0,26.4-32.6,67.5,11.2c0,0,4.4,97.2-16.2,106c0,0,42.3,23.9,76.4,10.2
					c34.1-13.6,42.6-51.1,42.6-51.1s-16.1-2.2-13-27c3-24.8,48.3-71.9-7.6-89.3c0,0-33.7-47.4-133.9-7.2
					C871.1,471.8,845.5,433,855.3,518.9z"/>
				<path fill="#855914" d="M877.8,590.7l10.5,4.6l-7.7,0.8c14.1,4.6,24.5,0,24.5,0L877.8,590.7z"/>
				<polygon fill="#FFF197" points="971.4,504.5 932,523 938.2,529.6 971.4,517.1 				"/>
			</g>
			<path fill="#728ABA" d="M971.4,634.1L826.7,808.6l51.1,15.7l114.9-133.8C992.7,690.5,1008.3,621.2,971.4,634.1z"/>
		</g>
		<g>
			<polygon fill="#BD77B2" points="670.9,953.9 640,959.9 622.7,953.9 622.7,940.2 471.2,788.1 898.4,862.8 			"/>
			<polygon fill="#FFF197" points="479.7,784.4 627.9,935.5 627.9,950.3 648,953.9 754.1,820.5 			"/>
			<polygon fill="#FFF5C9" points="515,763.8 634.3,933.8 732.6,907.6 740.2,793.6 			"/>
			<path fill="#FFF197" d="M634.3,933.8l95-243c0,0,8.1,14,23.8,7.6l11.3,85.9l-31.7,123.2"/>
			<polygon fill="#A967AA" points="754.1,693.5 645.7,938.3 640,959.9 788.1,975.9 955.4,973.7 1097.2,858.5 			"/>
			<polygon fill="#AC4A9C" points="756.6,733.6 673.8,920.8 877.8,974.7 929.7,974 1047.1,859.4 			"/>
			<g>
				<path fill="#FFEC5F" d="M874.3,975.2L874.3,975.2l-196.9-52l80.1-181l0.5,0.2L1038,863.7L924.4,974.6l-0.2,0L874.3,975.2z
					 M678.8,922.5l195.6,51.7l49.6-0.7L1036.2,864L758,743.5L678.8,922.5z"/>
			</g>
			<g>
				<path fill="#FFEC5F" d="M911.6,975.2l-10.4,0l-198.5-61.1l0.2-0.5l68.6-155.1l0.5,0.2l240.6,104.2l-0.5,0.5L911.6,975.2z
					 M901.4,974.2h9.7l99.8-110.9L772.1,759.9l-68,153.6L901.4,974.2z"/>
			</g>
		</g>
		<path fill="#801D7F" d="M1114.5,901c0,0-288.7-106.7-325.4-66.3c-36.6,40.5,102.4,139.8,102.4,139.8l155.1-5L1114.5,901z"/>
	</g>
	<path fill="#FFFFFF" d="M0,0v980h1400V0H0z M1371.7,891.9c0,37.8-30.6,68.4-68.4,68.4H96.6c-37.8,0-68.4-30.6-68.4-68.4V88.1
		c0-37.8,30.6-68.4,68.4-68.4h1206.7c37.8,0,68.4,30.6,68.4,68.4V891.9z"/>
</g>
</svg>
